<svg fill="none" height="64" viewBox="0 0 64 64" width="64" xmlns="http://www.w3.org/2000/svg"><path clip-rule="evenodd" d="m32 62c16.5685 0 30-13.4315 30-30s-13.4315-30-30-30-30 13.4315-30 30 13.4315 30 30 30zm0 2c17.6731 0 32-14.3269 32-32s-14.3269-32-32-32-32 14.3269-32 32 14.3269 32 32 32zm27-32c0 14.9117-12.0883 27-27 27s-27-12.0883-27-27 12.0883-27 27-27 27 12.0883 27 27zm-33.9393-4.0607c-.5858-.5857-1.5356-.5857-2.1214 0-.5857.5858-.5857 1.5356 0 2.1214l8 8c.5858.5857 1.5356.5857 2.1214 0l8-8c.5857-.5858.5857-1.5356 0-2.1214-.5858-.5857-1.5356-.5857-2.1214 0l-6.9393 6.9394z" fill="#f4b000" fill-rule="evenodd"/></svg>